<?xml version="1.0" encoding="utf-8"?>
<!-- Generator: Adobe Illustrator 15.1.0, SVG Export Plug-In . SVG Version: 6.00 Build 0)  -->
<!DOCTYPE svg PUBLIC "-//W3C//DTD SVG 1.1//EN" "http://www.w3.org/Graphics/SVG/1.1/DTD/svg11.dtd">
<svg version="1.1"
	 id="svg2" sodipodi:docname="Cs-137-decay.svg" inkscape:version="0.48.0 r9654" xmlns:rdf="http://www.w3.org/1999/02/22-rdf-syntax-ns#" xmlns:cc="http://creativecommons.org/ns#" xmlns:inkscape="http://www.inkscape.org/namespaces/inkscape" xmlns:sodipodi="http://sodipodi.sourceforge.net/DTD/sodipodi-0.dtd" xmlns:svg="http://www.w3.org/2000/svg" xmlns:dc="http://purl.org/dc/elements/1.1/"
	 xmlns="http://www.w3.org/2000/svg" xmlns:xlink="http://www.w3.org/1999/xlink" x="0px" y="0px" width="611.419px"
	 height="355.956px" viewBox="16.033 29.263 611.419 355.956" enable-background="new 16.033 29.263 611.419 355.956"
	 xml:space="preserve">
<g enable-background="new    ">
	<path fill="#0066FF" d="M291.338,173.183l1.329,0.275c-0.077,0.642-0.003,1.146,0.223,1.515c0.225,0.367,0.579,0.627,1.062,0.774
		c0.413,0.126,0.804,0.143,1.174,0.049c0.369-0.095,0.701-0.269,0.998-0.523c0.296-0.256,0.594-0.632,0.893-1.128
		c0.299-0.497,0.534-1.024,0.705-1.582c0.018-0.06,0.043-0.15,0.075-0.271c-0.4,0.346-0.875,0.581-1.421,0.705
		c-0.547,0.123-1.092,0.103-1.635-0.063c-0.906-0.277-1.572-0.841-1.999-1.69c-0.426-0.85-0.475-1.812-0.146-2.888
		c0.34-1.11,0.941-1.905,1.804-2.381c0.861-0.477,1.786-0.565,2.772-0.264c0.712,0.218,1.305,0.608,1.777,1.173
		c0.472,0.564,0.753,1.249,0.843,2.053c0.089,0.803-0.073,1.877-0.484,3.222c-0.429,1.399-0.921,2.467-1.479,3.203
		s-1.203,1.229-1.936,1.479c-0.733,0.249-1.502,0.25-2.31,0.004c-0.856-0.263-1.483-0.715-1.881-1.355
		C291.304,174.846,291.183,174.078,291.338,173.183z M298.323,170.034c0.236-0.771,0.218-1.447-0.055-2.025
		c-0.271-0.578-0.697-0.957-1.274-1.134c-0.598-0.184-1.193-0.099-1.785,0.254c-0.593,0.353-1.008,0.917-1.246,1.694
		c-0.213,0.697-0.176,1.328,0.111,1.893c0.287,0.565,0.74,0.941,1.357,1.131c0.623,0.19,1.201,0.129,1.735-0.185
		C297.7,171.349,298.087,170.807,298.323,170.034z"/>
	<path fill="#0066FF" d="M303.18,179.578l0.803-2.622l-4.751-1.455l0.377-1.232l7.17-5.567l1.098,0.336l-2.172,7.098l1.479,0.453
		l-0.377,1.232l-1.479-0.453l-0.803,2.622L303.18,179.578z M304.36,175.723l1.511-4.938l-4.941,3.889L304.36,175.723z"/>
	<path fill="#0066FF" d="M308.133,181.094l0.469-1.531l1.531,0.469l-0.469,1.531L308.133,181.094z"/>
	<path fill="#0066FF" d="M321.137,176.03l-1.369-0.305c0.042-0.565-0.01-1.001-0.156-1.307c-0.246-0.494-0.636-0.823-1.168-0.986
		c-0.429-0.131-0.842-0.127-1.238,0.014c-0.518,0.179-0.989,0.526-1.414,1.045c-0.426,0.519-0.812,1.323-1.157,2.416
		c0.475-0.394,0.983-0.639,1.524-0.734c0.541-0.097,1.068-0.065,1.581,0.092c0.896,0.274,1.559,0.837,1.987,1.691
		c0.428,0.853,0.482,1.801,0.162,2.848c-0.211,0.686-0.555,1.279-1.031,1.779c-0.478,0.499-1.023,0.827-1.637,0.982
		c-0.614,0.154-1.25,0.132-1.907-0.069c-1.12-0.343-1.909-1.035-2.363-2.075c-0.455-1.041-0.393-2.508,0.187-4.4
		c0.648-2.117,1.51-3.535,2.586-4.257c0.938-0.628,1.985-0.767,3.141-0.412c0.862,0.264,1.493,0.722,1.896,1.372
		C321.163,174.376,321.288,175.144,321.137,176.03z M314.202,179.07c-0.143,0.463-0.18,0.937-0.112,1.42s0.243,0.891,0.529,1.22
		c0.286,0.33,0.623,0.555,1.011,0.674c0.568,0.174,1.126,0.095,1.676-0.239c0.548-0.333,0.943-0.893,1.184-1.68
		c0.232-0.758,0.213-1.415-0.058-1.975c-0.27-0.56-0.711-0.933-1.323-1.12c-0.608-0.187-1.19-0.127-1.747,0.181
		C314.804,177.856,314.418,178.363,314.202,179.07z"/>
	<path fill="#0066FF" d="M322.614,185.968l9.524-9.709l1.09,0.334l-9.501,9.715L322.614,185.968z M322.938,176.523
		c0.24-0.781,0.64-1.386,1.201-1.813c0.561-0.428,1.216-0.527,1.963-0.299c0.687,0.211,1.181,0.631,1.481,1.26
		c0.3,0.628,0.306,1.418,0.014,2.369c-0.283,0.926-0.729,1.569-1.339,1.931c-0.608,0.36-1.246,0.439-1.914,0.235
		c-0.662-0.203-1.139-0.618-1.429-1.246C322.627,178.331,322.634,177.519,322.938,176.523z M325.855,175.349
		c-0.334-0.103-0.655-0.042-0.966,0.178c-0.31,0.222-0.583,0.718-0.819,1.49c-0.215,0.702-0.254,1.23-0.117,1.585
		c0.137,0.355,0.369,0.583,0.698,0.684c0.338,0.104,0.662,0.045,0.973-0.176c0.31-0.221,0.582-0.715,0.816-1.481
		c0.217-0.707,0.257-1.238,0.121-1.593C326.425,175.679,326.189,175.452,325.855,175.349z M328.26,184.443
		c0.24-0.787,0.641-1.394,1.201-1.817c0.561-0.425,1.217-0.522,1.969-0.293c0.688,0.211,1.181,0.631,1.482,1.26
		c0.3,0.628,0.305,1.418,0.014,2.369c-0.283,0.926-0.729,1.57-1.339,1.931c-0.608,0.361-1.249,0.438-1.922,0.233
		c-0.662-0.203-1.138-0.619-1.427-1.25S327.957,185.434,328.26,184.443z M331.184,183.271c-0.339-0.104-0.664-0.045-0.973,0.177
		c-0.311,0.22-0.584,0.717-0.82,1.488c-0.213,0.697-0.252,1.226-0.116,1.583c0.136,0.356,0.368,0.586,0.696,0.687
		c0.344,0.105,0.671,0.047,0.98-0.173c0.311-0.222,0.583-0.716,0.817-1.482c0.217-0.707,0.257-1.238,0.12-1.593
		C331.754,183.601,331.518,183.374,331.184,183.271z"/>
</g>
<g enable-background="new    ">
	<path fill="#0066FF" d="M208.18,121.343l-1.89,6.063l-2.003-0.624l4.928-15.809c0.393-1.26,0.87-2.193,1.432-2.801
		c0.562-0.605,1.328-1.013,2.302-1.222c0.973-0.207,1.967-0.154,2.981,0.162c1.499,0.468,2.5,1.252,3.004,2.354
		c0.503,1.102,0.596,2.164,0.277,3.186c-0.313,0.999-0.874,1.708-1.688,2.126c-0.813,0.417-1.646,0.572-2.495,0.462
		c1.258,0.532,2.114,1.31,2.568,2.335c0.453,1.025,0.497,2.127,0.13,3.305c-0.396,1.268-1.166,2.274-2.31,3.02
		c-1.145,0.743-2.504,0.869-4.077,0.379C209.729,123.778,208.677,122.798,208.18,121.343z M212.502,113.741
		c1.372,0.428,2.446,0.501,3.222,0.219s1.304-0.874,1.585-1.776c0.228-0.731,0.151-1.426-0.229-2.084
		c-0.379-0.658-0.969-1.112-1.767-1.361c-0.693-0.216-1.353-0.221-1.978-0.016c-0.625,0.206-1.064,0.516-1.32,0.928
		c-0.255,0.41-0.557,1.176-0.905,2.295l-1.405,4.508c-0.4,1.283-0.604,2.255-0.614,2.915s0.205,1.323,0.644,1.993
		c0.438,0.668,1.041,1.121,1.81,1.361c0.932,0.29,1.769,0.201,2.508-0.268s1.255-1.174,1.548-2.113
		c0.242-0.776,0.26-1.534,0.052-2.273c-0.207-0.74-0.568-1.312-1.086-1.714c-0.517-0.401-1.26-0.755-2.229-1.057l-0.291-0.091
		L212.502,113.741z"/>
	<path fill="#0066FF" d="M219.582,121.154l0.631-2.025l6.188,1.929l-0.632,2.025L219.582,121.154z"/>
	<path fill="#0066FF" d="M235.172,136.704c-0.674-1.749-1.103-3.683-1.285-5.802c-0.182-2.118,0.041-4.186,0.668-6.199
		c0.554-1.775,1.371-3.386,2.452-4.833c1.26-1.678,2.883-3.234,4.868-4.669l1.443,0.449c-1.386,1.271-2.328,2.192-2.826,2.766
		c-0.775,0.888-1.469,1.85-2.078,2.887c-0.756,1.295-1.354,2.647-1.793,4.058c-1.118,3.587-1.12,7.519-0.006,11.794L235.172,136.704
		z"/>
	<path fill="#0066FF" d="M241.236,128.59l2.171,0.48c-0.165,1.078-0.042,1.965,0.367,2.662c0.408,0.695,1.016,1.169,1.821,1.42
		c0.97,0.303,1.904,0.193,2.803-0.328c0.899-0.522,1.537-1.387,1.914-2.596c0.357-1.148,0.317-2.154-0.12-3.02
		c-0.438-0.865-1.18-1.461-2.225-1.787c-0.648-0.201-1.28-0.236-1.894-0.104c-0.614,0.132-1.144,0.386-1.588,0.763l-1.814-0.836
		l4.215-7.928l8.156,2.542l-0.601,1.924l-6.545-2.04l-2.258,4.133c1.199-0.38,2.339-0.4,3.42-0.063
		c1.433,0.446,2.485,1.319,3.161,2.618c0.676,1.298,0.771,2.727,0.284,4.287c-0.463,1.484-1.295,2.631-2.498,3.443
		c-1.465,1-3.107,1.216-4.928,0.648c-1.491-0.465-2.579-1.262-3.262-2.392C241.134,131.287,240.94,130.012,241.236,128.59z"/>
	<path fill="#0066FF" d="M260.225,139.223l-2.014-0.628l4-12.832c-0.629,0.312-1.409,0.575-2.341,0.794
		c-0.931,0.216-1.745,0.343-2.444,0.379l0.607-1.946c1.291-0.18,2.476-0.513,3.553-1.005c1.078-0.49,1.902-1.035,2.474-1.634
		l1.298,0.404L260.225,139.223z"/>
	<path fill="#0066FF" d="M276.569,142.196l-0.603,1.935l-10.841-3.38c0.136-0.488,0.359-0.93,0.671-1.325
		c0.506-0.652,1.174-1.241,2.005-1.769c0.831-0.525,1.968-1.08,3.409-1.662c2.238-0.906,3.804-1.688,4.697-2.347
		c0.893-0.659,1.457-1.368,1.694-2.129c0.249-0.799,0.173-1.561-0.227-2.286c-0.399-0.727-1.059-1.232-1.976-1.519
		c-0.97-0.302-1.836-0.253-2.599,0.147c-0.764,0.4-1.31,1.114-1.638,2.141l-2.003-0.857c0.623-1.5,1.522-2.511,2.699-3.031
		c1.178-0.521,2.546-0.538,4.104-0.053c1.573,0.491,2.684,1.316,3.329,2.474c0.645,1.159,0.767,2.384,0.364,3.675
		c-0.205,0.656-0.54,1.259-1.006,1.809c-0.466,0.551-1.12,1.079-1.962,1.586c-0.841,0.508-2.176,1.146-4.004,1.919
		c-1.524,0.638-2.515,1.084-2.971,1.339c-0.455,0.255-0.853,0.529-1.19,0.826L276.569,142.196z"/>
	<path fill="#0066FF" d="M285.062,146.965l5.112-16.4l2.014,0.628l-2.916,9.353l6.273-3.348l2.606,0.813l-5.916,2.992l2.671,9.032
		l-2.483-0.774l-2.033-7.299l-1.847,0.922l-1.468,4.71L285.062,146.965z"/>
	<path fill="#0066FF" d="M305.833,149.242l2.001,0.906c-0.707,1.113-1.608,1.867-2.706,2.262c-1.097,0.395-2.335,0.377-3.715-0.054
		c-1.738-0.542-2.949-1.507-3.634-2.894c-0.684-1.389-0.725-3.048-0.123-4.979c0.623-1.999,1.622-3.39,2.995-4.173
		s2.88-0.918,4.521-0.406c1.589,0.494,2.719,1.44,3.389,2.835c0.669,1.396,0.698,3.074,0.087,5.035
		c-0.037,0.119-0.097,0.298-0.179,0.534l-8.86-2.763c-0.333,1.329-0.275,2.443,0.173,3.344c0.447,0.901,1.167,1.506,2.159,1.815
		c0.738,0.23,1.429,0.232,2.072,0.007C304.655,150.488,305.262,149.997,305.833,149.242z M300.236,143.926l6.635,2.068
		c0.222-1.028,0.201-1.856-0.061-2.486c-0.399-0.976-1.11-1.623-2.132-1.941c-0.925-0.289-1.799-0.222-2.622,0.201
		S300.627,142.91,300.236,143.926z"/>
	<path fill="#0066FF" d="M314.195,156.047l-1.242-18.382l2.35,0.732l0.548,13.243c0.046,1.062,0.054,2.047,0.025,2.953
		c0.532-0.816,1.105-1.619,1.721-2.41l8.144-10.532l2.216,0.69l-11.534,14.398L314.195,156.047z"/>
	<path fill="#0066FF" d="M324.349,164.502l-1.443-0.449c3.347-2.885,5.578-6.121,6.696-9.709c0.438-1.402,0.711-2.844,0.82-4.323
		c0.095-1.197,0.075-2.382-0.059-3.553c-0.081-0.762-0.333-2.068-0.755-3.918l1.443,0.45c0.818,2.309,1.27,4.512,1.353,6.607
		c0.067,1.806-0.176,3.595-0.729,5.37c-0.627,2.014-1.62,3.841-2.978,5.479C327.34,162.096,325.89,163.445,324.349,164.502z"/>
</g>
<path id="path6212" inkscape:connector-curvature="0" fill="none" stroke="#000000" stroke-width="3.031" stroke-miterlimit="10.433" d="
	M16.033,98.272h198.729l0,0"/>
<path id="path6812" inkscape:connector-curvature="0" fill="none" stroke="#000000" stroke-width="3.031" stroke-miterlimit="10.433" d="
	M359.032,178.341h199.797l0,0"/>
<path id="path6841" inkscape:connector-curvature="0" fill="none" stroke="#000000" stroke-width="3.031" stroke-miterlimit="10.433" d="
	M359.032,321.341h199.797l0,0"/>
<g enable-background="new    ">
	<path d="M221.83,94.115l1.934-0.258c0.222,1.096,0.6,1.886,1.133,2.368c0.533,0.484,1.183,0.726,1.95,0.726
		c0.909,0,1.677-0.315,2.304-0.945c0.626-0.63,0.94-1.411,0.94-2.342c0-0.888-0.29-1.62-0.87-2.196
		c-0.58-0.577-1.318-0.865-2.213-0.865c-0.365,0-0.82,0.071-1.364,0.215l0.215-1.697c0.129,0.015,0.232,0.021,0.312,0.021
		c0.823,0,1.564-0.215,2.224-0.645c0.659-0.43,0.988-1.092,0.988-1.987c0-0.709-0.24-1.296-0.72-1.762
		c-0.48-0.466-1.1-0.698-1.858-0.698c-0.752,0-1.379,0.236-1.88,0.709c-0.501,0.473-0.824,1.182-0.967,2.127l-1.934-0.344
		c0.236-1.296,0.773-2.301,1.611-3.014c0.838-0.712,1.88-1.068,3.126-1.068c0.859,0,1.65,0.185,2.374,0.553
		c0.723,0.369,1.276,0.872,1.66,1.51c0.383,0.638,0.575,1.314,0.575,2.03c0,0.681-0.183,1.3-0.548,1.858s-0.906,1.003-1.622,1.332
		c0.931,0.215,1.654,0.66,2.17,1.338c0.516,0.676,0.773,1.523,0.773,2.54c0,1.375-0.501,2.54-1.504,3.497
		c-1.003,0.955-2.271,1.434-3.803,1.434c-1.382,0-2.53-0.412-3.443-1.235S221.959,95.426,221.83,94.115z"/>
	<path d="M234.055,90.506c0-1.862,0.191-3.36,0.575-4.495c0.383-1.136,0.952-2.011,1.708-2.627c0.755-0.616,1.706-0.924,2.852-0.924
		c0.845,0,1.586,0.17,2.224,0.51c0.637,0.341,1.164,0.831,1.579,1.473c0.415,0.641,0.741,1.421,0.978,2.342
		c0.236,0.92,0.354,2.16,0.354,3.722c0,1.848-0.19,3.339-0.569,4.474c-0.38,1.136-0.947,2.013-1.703,2.633
		c-0.756,0.619-1.71,0.929-2.863,0.929c-1.519,0-2.711-0.544-3.577-1.633C234.574,95.597,234.055,93.464,234.055,90.506z
		 M236.042,90.506c0,2.585,0.302,4.306,0.908,5.161c0.605,0.856,1.352,1.284,2.24,1.284c0.888,0,1.634-0.43,2.24-1.289
		c0.605-0.859,0.908-2.578,0.908-5.156c0-2.593-0.303-4.314-0.908-5.167c-0.605-0.853-1.359-1.278-2.261-1.278
		c-0.888,0-1.597,0.376-2.127,1.128C236.375,86.148,236.042,87.921,236.042,90.506z"/>
	<path d="M247.332,98.272V96.07h2.202v2.202c0,0.81-0.144,1.463-0.43,1.961c-0.287,0.497-0.741,0.882-1.364,1.154l-0.537-0.827
		c0.408-0.179,0.709-0.442,0.902-0.79c0.193-0.347,0.301-0.847,0.322-1.498H247.332z"/>
	<path d="M259.686,98.272h-1.934V85.951c-0.466,0.444-1.076,0.888-1.832,1.332c-0.756,0.444-1.434,0.777-2.036,0.999v-1.869
		c1.081-0.509,2.026-1.124,2.836-1.848c0.809-0.724,1.382-1.425,1.719-2.105h1.246V98.272z"/>
	<path d="M264.767,84.587v-1.858h10.194v1.504c-1.003,1.067-1.997,2.485-2.981,4.254c-0.985,1.769-1.746,3.588-2.283,5.457
		c-0.387,1.317-0.634,2.761-0.741,4.329h-1.987c0.021-1.239,0.265-2.735,0.73-4.49c0.465-1.755,1.133-3.446,2.003-5.076
		c0.87-1.629,1.795-3.002,2.777-4.119H264.767z"/>
	<path d="M290.967,96.865c-0.716,0.608-1.406,1.038-2.068,1.289c-0.663,0.251-1.374,0.376-2.132,0.376
		c-1.253,0-2.217-0.307-2.89-0.918c-0.673-0.613-1.01-1.396-1.01-2.348c0-0.559,0.127-1.068,0.381-1.531
		c0.254-0.461,0.587-0.832,0.999-1.111c0.412-0.279,0.875-0.49,1.391-0.634c0.379-0.101,0.952-0.197,1.719-0.29
		c1.561-0.187,2.71-0.408,3.448-0.666c0.007-0.265,0.011-0.434,0.011-0.505c0-0.788-0.183-1.343-0.548-1.665
		c-0.494-0.437-1.229-0.655-2.202-0.655c-0.91,0-1.581,0.159-2.014,0.478c-0.434,0.319-0.754,0.883-0.961,1.692l-1.891-0.258
		c0.172-0.81,0.455-1.463,0.849-1.96c0.394-0.498,0.963-0.881,1.708-1.15c0.745-0.268,1.607-0.402,2.589-0.402
		c0.974,0,1.765,0.114,2.374,0.344c0.608,0.229,1.056,0.518,1.343,0.865c0.286,0.347,0.487,0.785,0.602,1.315
		c0.064,0.329,0.097,0.924,0.097,1.783v2.578c0,1.798,0.041,2.935,0.124,3.411c0.082,0.476,0.245,0.933,0.489,1.369h-2.02
		C291.153,97.871,291.024,97.402,290.967,96.865z M290.806,92.547c-0.702,0.286-1.755,0.53-3.158,0.73
		c-0.795,0.114-1.357,0.243-1.687,0.387c-0.33,0.144-0.584,0.353-0.763,0.628c-0.179,0.276-0.269,0.582-0.269,0.919
		c0,0.516,0.195,0.945,0.585,1.289c0.39,0.344,0.961,0.516,1.713,0.516c0.745,0,1.407-0.163,1.987-0.489
		c0.58-0.325,1.006-0.771,1.278-1.337c0.208-0.437,0.312-1.081,0.312-1.934V92.547z"/>
</g>
<g enable-background="new    ">
	<path fill="#0066FF" d="M301.26,290.952l1.197,0.874c-0.389,0.614-0.551,1.188-0.488,1.724c0.063,0.534,0.308,0.985,0.732,1.354
		c0.511,0.443,1.11,0.627,1.799,0.549s1.31-0.436,1.863-1.072c0.525-0.605,0.771-1.23,0.735-1.877
		c-0.036-0.645-0.33-1.207-0.88-1.685c-0.342-0.298-0.718-0.488-1.128-0.571c-0.41-0.084-0.802-0.07-1.174,0.041l-0.884-0.996
		l4.695-3.713l4.3,3.734l-0.881,1.014l-3.451-2.996l-2.484,1.918c0.833,0.09,1.535,0.382,2.105,0.877
		c0.755,0.656,1.165,1.471,1.23,2.445c0.065,0.973-0.259,1.87-0.973,2.692c-0.68,0.782-1.496,1.262-2.446,1.435
		c-1.163,0.219-2.224-0.089-3.183-0.922c-0.787-0.684-1.237-1.461-1.353-2.333S300.698,291.742,301.26,290.952z"/>
	<path fill="#0066FF" d="M306.607,299.569l1.05-1.209l1.209,1.05l-1.05,1.209L306.607,299.569z"/>
	<path fill="#0066FF" d="M312.771,304.922l1.798-2.07l-3.752-3.258l0.845-0.973l8.813-2.178l0.867,0.754l-4.867,5.604l1.168,1.015
		l-0.845,0.974l-1.168-1.016l-1.798,2.07L312.771,304.922z M315.415,301.879l3.385-3.899l-6.093,1.548L315.415,301.879z"/>
	<path fill="#0066FF" d="M317.862,309.902l12.646-5.005l0.86,0.747l-12.627,5.021L317.862,309.902z M321.993,301.404
		c0.536-0.617,1.147-1.008,1.834-1.17c0.686-0.163,1.324,0.012,1.914,0.523c0.543,0.472,0.824,1.056,0.844,1.752
		s-0.297,1.42-0.949,2.172c-0.636,0.73-1.305,1.139-2.008,1.221c-0.703,0.083-1.318-0.104-1.845-0.563
		c-0.523-0.453-0.79-1.027-0.8-1.719S321.309,302.191,321.993,301.404z M325.135,301.515c-0.264-0.229-0.582-0.306-0.955-0.229
		c-0.373,0.074-0.824,0.418-1.354,1.027c-0.481,0.555-0.731,1.021-0.752,1.402c-0.02,0.379,0.102,0.682,0.361,0.907
		c0.267,0.232,0.587,0.31,0.96,0.234c0.373-0.077,0.823-0.417,1.349-1.022c0.484-0.559,0.736-1.027,0.757-1.408
		C325.521,302.049,325.399,301.744,325.135,301.515z M323.64,310.802c0.54-0.621,1.151-1.013,1.837-1.174
		c0.684-0.16,1.324,0.018,1.918,0.533c0.542,0.471,0.822,1.055,0.842,1.751c0.021,0.696-0.296,1.421-0.948,2.171
		c-0.636,0.732-1.305,1.139-2.008,1.222s-1.319-0.106-1.851-0.567c-0.523-0.454-0.789-1.027-0.797-1.721
		C322.626,312.323,322.962,311.585,323.64,310.802z M326.789,310.918c-0.268-0.232-0.589-0.31-0.961-0.233
		c-0.372,0.075-0.823,0.419-1.353,1.028c-0.479,0.551-0.729,1.018-0.75,1.398c-0.021,0.382,0.099,0.686,0.357,0.911
		c0.271,0.235,0.594,0.315,0.967,0.239s0.823-0.417,1.349-1.022c0.485-0.558,0.737-1.028,0.757-1.407
		C327.175,311.451,327.052,311.147,326.789,310.918z"/>
</g>
<g enable-background="new    ">
	<path fill="#0066FF" d="M158.182,171.881l-4.275,4.699l-1.551-1.412L163.5,162.92c0.889-0.977,1.715-1.621,2.48-1.934
		c0.765-0.313,1.633-0.357,2.603-0.135c0.97,0.223,1.848,0.691,2.634,1.406c1.162,1.057,1.738,2.191,1.729,3.402
		c-0.009,1.211-0.374,2.213-1.094,3.005c-0.705,0.774-1.514,1.179-2.428,1.214c-0.914,0.034-1.732-0.178-2.457-0.635
		c0.916,1.013,1.363,2.08,1.341,3.201c-0.021,1.121-0.448,2.138-1.278,3.051c-0.894,0.982-2.017,1.568-3.368,1.76
		c-1.352,0.191-2.637-0.268-3.856-1.377C158.557,174.742,158.016,173.41,158.182,171.881z M165.309,166.816
		c1.063,0.968,2.006,1.488,2.828,1.559c0.822,0.072,1.551-0.241,2.187-0.94c0.515-0.566,0.74-1.228,0.674-1.985
		s-0.408-1.418-1.027-1.98c-0.537-0.488-1.133-0.771-1.787-0.848c-0.653-0.078-1.182,0.017-1.587,0.281
		c-0.405,0.266-1.002,0.832-1.791,1.698l-3.178,3.493c-0.904,0.994-1.5,1.788-1.787,2.383c-0.288,0.594-0.374,1.286-0.259,2.078
		c0.115,0.79,0.47,1.456,1.065,1.998c0.723,0.656,1.518,0.93,2.386,0.816c0.869-0.113,1.634-0.533,2.297-1.262
		c0.546-0.602,0.883-1.28,1.007-2.038c0.124-0.759,0.037-1.429-0.261-2.013c-0.298-0.582-0.823-1.216-1.575-1.899l-0.225-0.204
		L165.309,166.816z"/>
	<path fill="#0066FF" d="M168.596,176.525l1.427-1.568l4.793,4.361l-1.427,1.568L168.596,176.525z"/>
	<path fill="#0066FF" d="M176.159,197.206c0.127-1.87,0.556-3.804,1.285-5.802c0.73-1.997,1.805-3.776,3.225-5.336
		c1.251-1.376,2.673-2.49,4.264-3.346c1.85-0.988,3.979-1.714,6.384-2.176l1.118,1.018c-1.792,0.565-3.036,1.002-3.729,1.313
		c-1.078,0.477-2.112,1.057-3.104,1.738c-1.231,0.855-2.344,1.828-3.338,2.92c-2.529,2.779-4.192,6.342-4.987,10.688
		L176.159,197.206z"/>
	<path fill="#0066FF" d="M187.931,201.089l-1.56-1.419l9.046-9.942c-0.702,0.017-1.521-0.073-2.456-0.271
		c-0.936-0.195-1.728-0.426-2.376-0.688l1.373-1.509c1.246,0.384,2.46,0.581,3.645,0.591c1.184,0.011,2.162-0.135,2.933-0.438
		l1.005,0.916L187.931,201.089z"/>
	<path fill="#0066FF" d="M196.486,208.873l-1.561-1.42l9.046-9.941c-0.701,0.016-1.52-0.074-2.456-0.271s-1.728-0.426-2.376-0.688
		l1.373-1.508c1.246,0.384,2.46,0.58,3.645,0.592c1.184,0.01,2.162-0.136,2.932-0.438l1.006,0.914L196.486,208.873z"/>
	<path fill="#0066FF" d="M210.633,201.56l1.365-1.5l8.226,7.484l-1.104,1.213c-1.592,0.126-3.435,0.541-5.528,1.244
		c-2.093,0.705-4.042,1.614-5.848,2.729c-1.279,0.779-2.538,1.762-3.776,2.949l-1.604-1.46c0.927-0.983,2.222-2.013,3.886-3.087
		c1.664-1.074,3.445-1.949,5.343-2.625c1.898-0.676,3.653-1.104,5.265-1.285L210.633,201.56z"/>
	<path fill="#0066FF" d="M215.356,226.042l2.768-3.042l-5.513-5.017l1.301-1.431l13.292-2.957l1.274,1.158l-7.493,8.234l1.716,1.563
		l-1.301,1.43l-1.716-1.562l-2.768,3.042L215.356,226.042z M219.425,221.569l5.213-5.729l-9.192,2.109L219.425,221.569z"/>
	<path fill="#0066FF" d="M225.601,235.363l11.562-12.707l1.56,1.42l-6.593,7.246l7.099-0.385l2.02,1.838l-6.627,0.213l-1.394,9.316
		l-1.924-1.752l1.24-7.475l-2.063,0.057l-3.32,3.648L225.601,235.363z"/>
	<path fill="#0066FF" d="M243.467,246.201l1.431,1.666c-1.112,0.711-2.248,1.014-3.409,0.907c-1.161-0.105-2.276-0.645-3.345-1.617
		c-1.346-1.226-2.037-2.61-2.071-4.158c-0.035-1.547,0.629-3.069,1.991-4.565c1.409-1.549,2.901-2.388,4.477-2.518
		c1.576-0.129,3,0.385,4.271,1.541c1.23,1.119,1.854,2.453,1.873,4.001s-0.665,3.082-2.048,4.602
		c-0.084,0.093-0.213,0.229-0.387,0.408l-6.865-6.246c-0.863,1.063-1.281,2.099-1.256,3.104c0.025,1.004,0.422,1.856,1.191,2.556
		c0.572,0.521,1.197,0.815,1.875,0.882C241.873,246.832,242.63,246.644,243.467,246.201z M240.639,239.017l5.14,4.677
		c0.635-0.837,0.967-1.597,0.996-2.278c0.05-1.053-0.322-1.939-1.113-2.66c-0.716-0.652-1.537-0.961-2.461-0.926
		S241.422,238.261,240.639,239.017z"/>
	<path fill="#0066FF" d="M248.172,255.9l6.639-17.187l1.82,1.656l-5.097,12.235c-0.407,0.982-0.815,1.878-1.225,2.688
		c0.828-0.515,1.687-1.001,2.578-1.458l11.832-6.107l1.716,1.562l-16.537,8.181L248.172,255.9z"/>
	<path fill="#0066FF" d="M253.804,267.853l-1.118-1.017c4.251-1.202,7.642-3.192,10.171-5.972c0.988-1.087,1.844-2.277,2.569-3.572
		c0.592-1.045,1.075-2.127,1.448-3.246c0.248-0.725,0.571-2.015,0.97-3.869l1.118,1.017c-0.233,2.439-0.755,4.626-1.565,6.562
		c-0.701,1.664-1.678,3.184-2.929,4.56c-1.42,1.56-3.091,2.796-5.014,3.708S255.648,267.546,253.804,267.853z"/>
</g>
<g enable-background="new    ">
	<path d="M135.17,61.175l3.41,0.861c-0.715,2.801-2.001,4.937-3.858,6.407s-4.128,2.206-6.812,2.206
		c-2.777,0-5.036-0.565-6.776-1.696s-3.064-2.769-3.973-4.913s-1.362-4.447-1.362-6.908c0-2.684,0.513-5.024,1.538-7.022
		s2.484-3.516,4.377-4.553s3.976-1.556,6.249-1.556c2.578,0,4.746,0.656,6.504,1.969s2.982,3.158,3.674,5.537l-3.357,0.791
		c-0.598-1.875-1.465-3.24-2.602-4.096s-2.566-1.283-4.289-1.283c-1.98,0-3.636,0.475-4.966,1.424s-2.265,2.224-2.804,3.823
		s-0.809,3.249-0.809,4.948c0,2.191,0.319,4.104,0.958,5.739s1.632,2.856,2.979,3.665s2.807,1.213,4.377,1.213
		c1.91,0,3.527-0.551,4.852-1.652S134.701,63.343,135.17,61.175z"/>
	<path d="M141.112,64.637l3.129-0.492c0.176,1.254,0.665,2.215,1.468,2.883s1.925,1.002,3.366,1.002
		c1.453,0,2.531-0.296,3.234-0.888s1.055-1.286,1.055-2.083c0-0.715-0.311-1.277-0.932-1.688c-0.434-0.281-1.512-0.639-3.234-1.072
		c-2.32-0.586-3.929-1.093-4.825-1.521s-1.576-1.02-2.039-1.775s-0.694-1.591-0.694-2.505c0-0.832,0.19-1.603,0.571-2.312
		s0.899-1.298,1.556-1.767c0.492-0.363,1.163-0.671,2.013-0.923s1.761-0.378,2.733-0.378c1.465,0,2.751,0.211,3.858,0.633
		s1.925,0.993,2.452,1.714s0.891,1.685,1.09,2.892l-3.094,0.422c-0.141-0.961-0.548-1.711-1.222-2.25s-1.626-0.809-2.856-0.809
		c-1.453,0-2.49,0.24-3.111,0.721s-0.932,1.043-0.932,1.688c0,0.41,0.129,0.779,0.387,1.107c0.258,0.34,0.662,0.621,1.213,0.844
		c0.316,0.117,1.248,0.387,2.795,0.809c2.238,0.598,3.8,1.087,4.685,1.468s1.579,0.935,2.083,1.661s0.756,1.629,0.756,2.707
		c0,1.055-0.308,2.048-0.923,2.979s-1.503,1.652-2.663,2.162s-2.473,0.765-3.938,0.765c-2.426,0-4.274-0.504-5.546-1.512
		S141.463,66.618,141.112,64.637z"/>
</g>
<g enable-background="new    ">
	<path fill="#FF0000" d="M474.761,254.529c0.192,0.864,0.448,2.368,0.448,3.775c0,1.696-0.352,3.2-1.952,3.2
		c-1.056,0-1.567-0.96-1.567-2.176c0-0.769,0.191-1.92,0.576-3.136c0.287-0.96,0.703-1.888,1.055-2.816
		c-0.256-2.367-1.119-11.23-4.159-11.23c-0.672,0-1.632,0.896-1.856,2.815h-0.479c0-2.592,0.832-5.056,2.784-5.056
		c3.711,0,4.063,8.768,4.576,11.52l3.327-11.296h3.2L474.761,254.529z"/>
	<path fill="#FF0000" d="M496.003,260.422c-1.359-1.714-2.508-3.719-3.445-6.016c-0.939-2.297-1.408-4.676-1.408-7.137
		c0-2.169,0.35-4.247,1.053-6.234c0.82-2.306,2.086-4.603,3.801-6.891h1.764c-1.104,1.896-1.832,3.249-2.188,4.061
		c-0.557,1.258-0.994,2.57-1.313,3.938c-0.393,1.704-0.588,3.418-0.588,5.141c0,4.384,1.361,8.764,4.088,13.139H496.003z"/>
	<path fill="#FF0000" d="M512.71,239.394l-2.447,0.191c-0.219-0.966-0.529-1.668-0.93-2.105c-0.666-0.702-1.486-1.053-2.461-1.053
		c-0.785,0-1.473,0.219-2.064,0.656c-0.775,0.565-1.387,1.39-1.832,2.475c-0.447,1.085-0.68,2.63-0.697,4.635
		c0.592-0.902,1.316-1.572,2.174-2.01c0.855-0.438,1.754-0.656,2.693-0.656c1.641,0,3.037,0.604,4.189,1.812
		c1.153,1.208,1.73,2.769,1.73,4.683c0,1.258-0.271,2.427-0.814,3.507c-0.542,1.08-1.287,1.907-2.234,2.481
		c-0.949,0.574-2.023,0.861-3.227,0.861c-2.051,0-3.725-0.754-5.018-2.263c-1.295-1.509-1.941-3.994-1.941-7.458
		c0-3.874,0.715-6.69,2.146-8.449c1.248-1.531,2.93-2.297,5.045-2.297c1.576,0,2.868,0.442,3.875,1.326
		C511.905,236.614,512.509,237.836,512.71,239.394z M502.661,248.035c0,0.848,0.18,1.659,0.539,2.434
		c0.36,0.774,0.863,1.365,1.512,1.771c0.646,0.405,1.326,0.608,2.037,0.608c1.039,0,1.932-0.419,2.68-1.258
		c0.746-0.839,1.121-1.978,1.121-3.418c0-1.386-0.369-2.477-1.107-3.274s-1.668-1.196-2.789-1.196c-1.113,0-2.057,0.398-2.83,1.196
		C503.048,245.695,502.661,246.741,502.661,248.035z"/>
	<path fill="#FF0000" d="M528.282,239.394l-2.447,0.191c-0.219-0.966-0.529-1.668-0.93-2.105c-0.666-0.702-1.486-1.053-2.461-1.053
		c-0.785,0-1.473,0.219-2.064,0.656c-0.775,0.565-1.387,1.39-1.832,2.475c-0.447,1.085-0.68,2.63-0.697,4.635
		c0.592-0.902,1.316-1.572,2.174-2.01c0.855-0.438,1.754-0.656,2.693-0.656c1.641,0,3.037,0.604,4.189,1.812
		c1.153,1.208,1.73,2.769,1.73,4.683c0,1.258-0.271,2.427-0.814,3.507c-0.542,1.08-1.287,1.907-2.234,2.481
		c-0.949,0.574-2.023,0.861-3.227,0.861c-2.051,0-3.725-0.754-5.018-2.263c-1.295-1.509-1.941-3.994-1.941-7.458
		c0-3.874,0.715-6.69,2.146-8.449c1.248-1.531,2.93-2.297,5.045-2.297c1.576,0,2.868,0.442,3.875,1.326
		C527.477,236.614,528.081,237.836,528.282,239.394z M518.233,248.035c0,0.848,0.18,1.659,0.539,2.434
		c0.36,0.774,0.863,1.365,1.512,1.771c0.646,0.405,1.326,0.608,2.037,0.608c1.039,0,1.932-0.419,2.68-1.258
		c0.746-0.839,1.121-1.978,1.121-3.418c0-1.386-0.369-2.477-1.107-3.274s-1.668-1.196-2.789-1.196c-1.113,0-2.057,0.398-2.83,1.196
		C518.62,245.695,518.233,246.741,518.233,248.035z"/>
	<path fill="#FF0000" d="M544.018,252.164v2.365H530.77c-0.02-0.593,0.076-1.162,0.287-1.709c0.336-0.902,0.877-1.791,1.619-2.666
		c0.743-0.875,1.816-1.887,3.221-3.035c2.178-1.786,3.65-3.201,4.416-4.245s1.148-2.03,1.148-2.96c0-0.976-0.35-1.798-1.047-2.468
		s-1.605-1.005-2.727-1.005c-1.186,0-2.133,0.355-2.844,1.066s-1.072,1.695-1.08,2.953l-2.529-0.26
		c0.172-1.887,0.824-3.324,1.955-4.313c1.129-0.989,2.646-1.483,4.553-1.483c1.922,0,3.445,0.533,4.566,1.6s1.682,2.388,1.682,3.965
		c0,0.802-0.164,1.591-0.492,2.365s-0.873,1.591-1.635,2.447c-0.761,0.856-2.025,2.032-3.793,3.527
		c-1.477,1.239-2.426,2.08-2.844,2.522c-0.42,0.442-0.766,0.887-1.039,1.333H544.018z"/>
	<path fill="#FF0000" d="M555.134,254.529v-20.043h2.461v11.43l5.824-5.906h3.186l-5.551,5.387l6.111,9.133h-3.035l-4.799-7.424
		l-1.736,1.668v5.756H555.134z"/>
	<path fill="#FF0000" d="M579.059,249.853l2.543,0.314c-0.402,1.485-1.145,2.639-2.229,3.459c-1.086,0.82-2.471,1.23-4.156,1.23
		c-2.125,0-3.809-0.654-5.053-1.962s-1.865-3.143-1.865-5.503c0-2.442,0.629-4.339,1.887-5.688s2.889-2.023,4.895-2.023
		c1.941,0,3.527,0.661,4.758,1.982s1.846,3.181,1.846,5.578c0,0.146-0.006,0.364-0.014,0.656h-10.828
		c0.09,1.595,0.541,2.816,1.354,3.664c0.811,0.848,1.822,1.271,3.035,1.271c0.902,0,1.672-0.237,2.311-0.711
		C578.178,251.649,578.684,250.892,579.059,249.853z M570.979,245.875h8.107c-0.109-1.222-0.42-2.138-0.93-2.748
		c-0.785-0.948-1.801-1.422-3.049-1.422c-1.131,0-2.081,0.378-2.852,1.135C571.487,243.596,571.061,244.608,570.979,245.875z"/>
	<path fill="#FF0000" d="M590.735,254.529l-7.766-20.043h2.871l5.209,14.561c0.418,1.167,0.77,2.261,1.053,3.281
		c0.309-1.094,0.67-2.188,1.08-3.281l5.414-14.561h2.707l-7.848,20.043H590.735z"/>
	<path fill="#FF0000" d="M604.981,260.422h-1.764c2.725-4.375,4.088-8.755,4.088-13.139c0-1.714-0.197-3.413-0.588-5.1
		c-0.311-1.367-0.744-2.68-1.299-3.938c-0.355-0.82-1.09-2.188-2.201-4.102h1.764c1.713,2.288,2.98,4.585,3.801,6.891
		c0.701,1.987,1.053,4.065,1.053,6.234c0,2.461-0.473,4.84-1.416,7.137S606.329,258.708,604.981,260.422z"/>
</g>
<g enable-background="new    ">
	<path d="M577.384,176.883v1.858h-10.41c-0.014-0.466,0.061-0.913,0.227-1.343c0.264-0.709,0.688-1.407,1.272-2.095
		c0.583-0.688,1.427-1.482,2.53-2.385c1.711-1.403,2.867-2.516,3.469-3.336c0.602-0.819,0.902-1.595,0.902-2.325
		c0-0.767-0.273-1.413-0.821-1.938c-0.548-0.527-1.263-0.79-2.144-0.79c-0.931,0-1.676,0.279-2.234,0.838s-0.842,1.332-0.848,2.32
		l-1.988-0.204c0.137-1.482,0.648-2.612,1.537-3.389c0.887-0.777,2.08-1.166,3.576-1.166c1.512,0,2.707,0.419,3.588,1.257
		s1.322,1.876,1.322,3.115c0,0.63-0.129,1.25-0.387,1.858s-0.687,1.25-1.284,1.923c-0.599,0.673-1.592,1.597-2.981,2.771
		c-1.16,0.974-1.904,1.635-2.234,1.981c-0.329,0.348-0.602,0.697-0.816,1.048H577.384z"/>
	<path d="M580.499,178.741v-2.202h2.201v2.202c0,0.81-0.143,1.463-0.43,1.961c-0.286,0.497-0.74,0.882-1.363,1.154l-0.537-0.827
		c0.408-0.179,0.709-0.442,0.902-0.79c0.193-0.347,0.301-0.847,0.322-1.498H580.499z"/>
	<path d="M585.569,174.616l2.029-0.172c0.15,0.988,0.5,1.731,1.048,2.229c0.548,0.498,1.208,0.747,1.981,0.747
		c0.932,0,1.719-0.351,2.363-1.053s0.967-1.633,0.967-2.793c0-1.103-0.31-1.973-0.929-2.61c-0.62-0.638-1.431-0.956-2.433-0.956
		c-0.623,0-1.186,0.142-1.688,0.425c-0.501,0.282-0.895,0.649-1.182,1.101l-1.814-0.236l1.525-8.089h7.83v1.848h-6.283l-0.85,4.232
		c0.945-0.659,1.938-0.988,2.977-0.988c1.375,0,2.535,0.477,3.48,1.429s1.418,2.177,1.418,3.674c0,1.425-0.416,2.657-1.246,3.695
		c-1.01,1.274-2.389,1.912-4.137,1.912c-1.432,0-2.602-0.401-3.507-1.203C586.215,177.005,585.698,175.941,585.569,174.616z"/>
	<path d="M597.803,174.616l2.031-0.172c0.15,0.988,0.499,1.731,1.047,2.229c0.548,0.498,1.209,0.747,1.982,0.747
		c0.93,0,1.719-0.351,2.363-1.053s0.967-1.633,0.967-2.793c0-1.103-0.311-1.973-0.93-2.61s-1.431-0.956-2.434-0.956
		c-0.623,0-1.186,0.142-1.686,0.425c-0.502,0.282-0.896,0.649-1.182,1.101l-1.816-0.236l1.525-8.089h7.832v1.848h-6.285
		l-0.848,4.232c0.945-0.659,1.937-0.988,2.975-0.988c1.375,0,2.535,0.477,3.48,1.429s1.418,2.177,1.418,3.674
		c0,1.425-0.415,2.657-1.246,3.695c-1.01,1.274-2.389,1.912-4.135,1.912c-1.434,0-2.602-0.401-3.508-1.203
		S597.932,175.941,597.803,174.616z"/>
	<path d="M610.577,178.741v-11.408h1.729v1.601c0.358-0.559,0.834-1.008,1.43-1.349c0.594-0.34,1.271-0.51,2.029-0.51
		c0.846,0,1.538,0.176,2.079,0.526c0.54,0.351,0.922,0.842,1.144,1.472c0.902-1.332,2.077-1.998,3.523-1.998
		c1.132,0,2.002,0.313,2.611,0.939c0.607,0.627,0.912,1.592,0.912,2.896v7.831h-1.922v-7.187c0-0.773-0.063-1.33-0.188-1.671
		c-0.126-0.34-0.353-0.613-0.683-0.821c-0.329-0.208-0.716-0.312-1.16-0.312c-0.802,0-1.468,0.267-1.998,0.801
		c-0.529,0.533-0.795,1.387-0.795,2.562v6.628h-1.934v-7.412c0-0.859-0.157-1.504-0.473-1.934c-0.314-0.43-0.83-0.645-1.547-0.645
		c-0.544,0-1.047,0.144-1.509,0.43s-0.797,0.705-1.005,1.257c-0.207,0.552-0.311,1.347-0.311,2.385v5.919H610.577z"/>
</g>
<g enable-background="new    ">
	<path d="M570.111,317.935l1.912-0.301c0.107,0.767,0.406,1.354,0.897,1.762c0.49,0.408,1.176,0.612,2.057,0.612
		c0.888,0,1.547-0.181,1.977-0.543c0.43-0.361,0.645-0.785,0.645-1.272c0-0.437-0.189-0.78-0.569-1.031
		c-0.265-0.172-0.924-0.391-1.977-0.655c-1.418-0.358-2.401-0.668-2.948-0.93c-0.549-0.261-0.964-0.623-1.246-1.084
		c-0.283-0.463-0.425-0.973-0.425-1.531c0-0.509,0.116-0.979,0.349-1.412c0.232-0.434,0.55-0.794,0.951-1.08
		c0.301-0.222,0.711-0.41,1.23-0.564c0.519-0.153,1.075-0.23,1.67-0.23c0.895,0,1.682,0.129,2.357,0.387
		c0.678,0.258,1.177,0.607,1.499,1.047c0.322,0.441,0.544,1.03,0.666,1.768l-1.891,0.258c-0.086-0.587-0.335-1.046-0.747-1.375
		s-0.993-0.494-1.745-0.494c-0.888,0-1.522,0.146-1.901,0.44c-0.38,0.294-0.569,0.638-0.569,1.031c0,0.251,0.079,0.477,0.236,0.677
		c0.157,0.208,0.404,0.38,0.741,0.516c0.193,0.071,0.763,0.236,1.708,0.494c1.368,0.365,2.321,0.664,2.862,0.896
		c0.541,0.233,0.965,0.571,1.273,1.016c0.308,0.444,0.462,0.995,0.462,1.654c0,0.645-0.188,1.252-0.563,1.82
		c-0.377,0.57-0.919,1.01-1.628,1.322c-0.709,0.311-1.511,0.467-2.406,0.467c-1.482,0-2.612-0.308-3.39-0.924
		S570.326,319.145,570.111,317.935z"/>
	<path d="M586.106,319.611l0.279,1.708c-0.545,0.114-1.031,0.172-1.461,0.172c-0.702,0-1.246-0.111-1.633-0.333
		s-0.659-0.514-0.816-0.876c-0.158-0.361-0.236-1.122-0.236-2.282v-6.563h-1.418v-1.504h1.418v-2.825l1.923-1.16v3.985h1.944v1.504
		h-1.944v6.671c0,0.552,0.034,0.906,0.103,1.063c0.067,0.157,0.178,0.283,0.332,0.376s0.375,0.14,0.661,0.14
		C585.472,319.686,585.755,319.661,586.106,319.611z"/>
	<path d="M595.441,319.933c-0.716,0.608-1.405,1.038-2.067,1.289c-0.663,0.251-1.374,0.376-2.133,0.376
		c-1.254,0-2.217-0.307-2.89-0.918c-0.673-0.613-1.01-1.396-1.01-2.348c0-0.559,0.127-1.068,0.382-1.531
		c0.254-0.461,0.586-0.832,0.998-1.111s0.876-0.49,1.392-0.634c0.38-0.101,0.952-0.197,1.719-0.29
		c1.562-0.187,2.71-0.408,3.448-0.666c0.007-0.265,0.011-0.434,0.011-0.505c0-0.788-0.183-1.343-0.548-1.665
		c-0.494-0.437-1.229-0.655-2.202-0.655c-0.909,0-1.581,0.159-2.015,0.478c-0.434,0.319-0.754,0.883-0.961,1.692l-1.891-0.258
		c0.172-0.81,0.455-1.463,0.849-1.96c0.394-0.498,0.963-0.881,1.708-1.15c0.744-0.268,1.607-0.402,2.589-0.402
		c0.974,0,1.765,0.114,2.374,0.344c0.608,0.229,1.057,0.518,1.343,0.865c0.286,0.347,0.487,0.785,0.602,1.315
		c0.064,0.329,0.097,0.924,0.097,1.783v2.578c0,1.798,0.041,2.935,0.123,3.411c0.082,0.476,0.246,0.933,0.489,1.369h-2.02
		C595.628,320.939,595.499,320.47,595.441,319.933z M595.28,315.615c-0.702,0.286-1.755,0.53-3.158,0.73
		c-0.795,0.114-1.357,0.243-1.687,0.387s-0.584,0.353-0.763,0.628c-0.18,0.276-0.269,0.582-0.269,0.919
		c0,0.516,0.194,0.945,0.585,1.289s0.962,0.516,1.714,0.516c0.745,0,1.407-0.163,1.987-0.489c0.58-0.325,1.006-0.771,1.278-1.337
		c0.208-0.437,0.312-1.081,0.312-1.934V315.615z"/>
	<path d="M602.015,321.341h-1.794v-15.748h1.934v5.618c0.816-1.024,1.858-1.536,3.126-1.536c0.702,0,1.366,0.142,1.993,0.424
		c0.626,0.283,1.142,0.681,1.547,1.193c0.404,0.512,0.721,1.129,0.95,1.853s0.344,1.497,0.344,2.32c0,1.955-0.483,3.466-1.45,4.533
		s-2.127,1.601-3.48,1.601c-1.347,0-2.402-0.563-3.169-1.687V321.341z M601.994,315.551c0,1.368,0.187,2.356,0.559,2.965
		c0.608,0.995,1.433,1.493,2.471,1.493c0.845,0,1.575-0.367,2.191-1.102c0.616-0.733,0.924-1.827,0.924-3.281
		c0-1.489-0.296-2.589-0.886-3.298c-0.592-0.709-1.306-1.063-2.144-1.063c-0.845,0-1.575,0.367-2.191,1.102
		C602.302,313.099,601.994,314.161,601.994,315.551z"/>
	<path d="M612.478,307.816v-2.224h1.934v2.224H612.478z M612.478,321.341v-11.408h1.934v11.408H612.478z"/>
	<path d="M617.312,321.341v-15.748h1.934v15.748H617.312z"/>
</g>
<g>
	<path d="M82.306,51.575h-2.285V37.013c-0.55,0.525-1.271,1.049-2.165,1.574s-1.695,0.918-2.406,1.181v-2.209
		c1.278-0.601,2.395-1.329,3.352-2.184s1.633-1.684,2.031-2.488h1.473V51.575z"/>
	<path d="M88.172,46.662l2.285-0.305c0.262,1.295,0.709,2.228,1.339,2.799s1.398,0.857,2.304,0.857c1.075,0,1.982-0.373,2.723-1.117
		s1.111-1.667,1.111-2.768c0-1.049-0.343-1.915-1.028-2.596s-1.557-1.022-2.615-1.022c-0.432,0-0.969,0.084-1.612,0.254l0.254-2.006
		c0.152,0.017,0.275,0.025,0.368,0.025c0.973,0,1.849-0.254,2.628-0.762s1.168-1.291,1.168-2.349c0-0.838-0.284-1.532-0.851-2.082
		s-1.299-0.825-2.196-0.825c-0.889,0-1.629,0.279-2.222,0.838s-0.973,1.396-1.143,2.514L88.4,37.712
		c0.279-1.532,0.914-2.719,1.904-3.561s2.222-1.263,3.694-1.263c1.016,0,1.951,0.218,2.806,0.654s1.509,1.03,1.961,1.784
		s0.679,1.553,0.679,2.399c0,0.804-0.216,1.536-0.647,2.196s-1.071,1.185-1.917,1.574c1.1,0.254,1.955,0.781,2.564,1.581
		s0.914,1.801,0.914,3.002c0,1.625-0.592,3.002-1.777,4.132s-2.683,1.695-4.494,1.695c-1.633,0-2.99-0.487-4.069-1.46
		S88.324,48.211,88.172,46.662z"/>
	<path d="M102.771,35.401v-2.196h12.048v1.777c-1.185,1.261-2.359,2.937-3.523,5.027s-2.063,4.24-2.698,6.449
		c-0.457,1.557-0.749,3.263-0.876,5.116h-2.349c0.025-1.464,0.313-3.233,0.863-5.307s1.339-4.073,2.368-5.999
		s2.122-3.548,3.282-4.869H102.771z"/>
</g>
<g>
	<path d="M88.159,80.7l2.399-0.203c0.178,1.168,0.59,2.046,1.238,2.634s1.428,0.882,2.342,0.882c1.1,0,2.031-0.415,2.793-1.244
		s1.143-1.93,1.143-3.301c0-1.303-0.366-2.332-1.098-3.085s-1.69-1.13-2.875-1.13c-0.736,0-1.401,0.167-1.993,0.501
		s-1.058,0.768-1.396,1.301l-2.146-0.279l1.803-9.56h9.255v2.184h-7.427l-1.003,5.002c1.117-0.779,2.29-1.168,3.517-1.168
		c1.625,0,2.996,0.563,4.113,1.688s1.676,2.573,1.676,4.342c0,1.684-0.491,3.14-1.473,4.367c-1.193,1.506-2.823,2.26-4.888,2.26
		c-1.693,0-3.074-0.474-4.145-1.422S88.311,82.266,88.159,80.7z"/>
	<path d="M102.619,80.7l2.399-0.203c0.178,1.168,0.59,2.046,1.238,2.634s1.428,0.882,2.342,0.882c1.1,0,2.031-0.415,2.793-1.244
		s1.143-1.93,1.143-3.301c0-1.303-0.366-2.332-1.098-3.085s-1.69-1.13-2.875-1.13c-0.736,0-1.401,0.167-1.993,0.501
		s-1.058,0.768-1.396,1.301l-2.146-0.279l1.803-9.56h9.255v2.184h-7.427l-1.003,5.002c1.117-0.779,2.29-1.168,3.517-1.168
		c1.625,0,2.996,0.563,4.113,1.688s1.676,2.573,1.676,4.342c0,1.684-0.491,3.14-1.473,4.367c-1.193,1.506-2.823,2.26-4.888,2.26
		c-1.693,0-3.074-0.474-4.145-1.422S102.771,82.266,102.619,80.7z"/>
</g>
<g>
	<g>
		
			<line fill="none" stroke="#0066FF" stroke-width="2" stroke-miterlimit="10" x1="345.587" y1="174.025" x2="109.575" y2="98.272"/>
		<g>
			<polygon fill="#0066FF" points="359.032,178.341 342.57,164.517 344.582,173.702 337.601,180 			"/>
		</g>
	</g>
</g>
<g enable-background="new    ">
	<path d="M477.35,364.71v-22.906h8.594c1.75,0,3.152,0.232,4.211,0.695c1.057,0.464,1.885,1.178,2.484,2.141
		c0.598,0.964,0.898,1.972,0.898,3.023c0,0.979-0.266,1.901-0.797,2.766c-0.531,0.865-1.334,1.563-2.406,2.094
		c1.385,0.406,2.449,1.1,3.195,2.078c0.744,0.979,1.117,2.136,1.117,3.469c0,1.073-0.227,2.07-0.68,2.992s-1.014,1.633-1.68,2.133
		c-0.668,0.5-1.504,0.878-2.508,1.133c-1.006,0.256-2.238,0.383-3.695,0.383H477.35z M480.382,351.428h4.953
		c1.344,0,2.307-0.088,2.891-0.266c0.77-0.229,1.352-0.609,1.742-1.141s0.586-1.197,0.586-2c0-0.76-0.184-1.43-0.547-2.008
		c-0.365-0.578-0.887-0.974-1.563-1.188c-0.678-0.213-1.84-0.32-3.484-0.32h-4.578V351.428z M480.382,362.007h5.703
		c0.979,0,1.666-0.036,2.063-0.109c0.697-0.125,1.281-0.333,1.75-0.625c0.469-0.291,0.854-0.716,1.156-1.273
		c0.301-0.557,0.453-1.2,0.453-1.93c0-0.854-0.219-1.596-0.656-2.227c-0.438-0.63-1.045-1.072-1.82-1.328
		c-0.777-0.255-1.895-0.383-3.352-0.383h-5.297V362.007z"/>
	<path d="M509.288,362.663c-1.043,0.886-2.045,1.511-3.008,1.875c-0.965,0.364-1.998,0.547-3.102,0.547
		c-1.824,0-3.225-0.445-4.203-1.336c-0.98-0.891-1.469-2.028-1.469-3.414c0-0.813,0.184-1.555,0.555-2.227
		c0.369-0.672,0.854-1.211,1.453-1.617c0.598-0.406,1.273-0.713,2.023-0.922c0.551-0.146,1.385-0.286,2.5-0.422
		c2.27-0.271,3.941-0.594,5.016-0.969c0.01-0.385,0.016-0.63,0.016-0.734c0-1.146-0.266-1.953-0.797-2.422
		c-0.719-0.635-1.787-0.953-3.203-0.953c-1.324,0-2.301,0.232-2.93,0.695c-0.631,0.464-1.098,1.284-1.398,2.461l-2.75-0.375
		c0.25-1.177,0.66-2.127,1.234-2.852c0.572-0.724,1.4-1.281,2.484-1.672c1.082-0.391,2.338-0.586,3.766-0.586
		c1.416,0,2.566,0.167,3.453,0.5c0.885,0.334,1.535,0.753,1.953,1.258c0.416,0.506,0.707,1.144,0.875,1.914
		c0.094,0.479,0.141,1.344,0.141,2.594v3.75c0,2.615,0.059,4.269,0.18,4.961c0.119,0.693,0.355,1.357,0.711,1.992h-2.938
		C509.557,364.127,509.37,363.444,509.288,362.663z M509.053,356.382c-1.021,0.417-2.553,0.771-4.594,1.063
		c-1.156,0.167-1.975,0.354-2.453,0.563c-0.48,0.209-0.85,0.514-1.109,0.914c-0.262,0.401-0.391,0.847-0.391,1.336
		c0,0.75,0.283,1.375,0.852,1.875c0.566,0.5,1.398,0.75,2.492,0.75c1.082,0,2.047-0.236,2.891-0.711
		c0.844-0.474,1.463-1.122,1.859-1.945c0.301-0.635,0.453-1.572,0.453-2.813V356.382z"/>
</g>
<g>
	<path d="M447.49,350.075h-1.934v-12.321c-0.466,0.444-1.076,0.888-1.831,1.332c-0.756,0.444-1.435,0.777-2.036,0.999v-1.869
		c1.081-0.508,2.026-1.124,2.836-1.848c0.81-0.723,1.382-1.425,1.719-2.105h1.246V350.075z"/>
	<path d="M452.453,345.918l1.934-0.258c0.222,1.096,0.6,1.886,1.134,2.368c0.533,0.484,1.183,0.726,1.949,0.726
		c0.909,0,1.678-0.315,2.305-0.945c0.626-0.63,0.939-1.411,0.939-2.342c0-0.888-0.29-1.62-0.87-2.196s-1.317-0.865-2.213-0.865
		c-0.365,0-0.82,0.072-1.364,0.215l0.215-1.697c0.129,0.015,0.232,0.021,0.312,0.021c0.823,0,1.564-0.215,2.224-0.645
		c0.658-0.43,0.988-1.092,0.988-1.987c0-0.709-0.24-1.296-0.72-1.762s-1.1-0.698-1.858-0.698c-0.752,0-1.379,0.236-1.88,0.709
		s-0.823,1.182-0.967,2.127l-1.934-0.344c0.236-1.296,0.773-2.301,1.611-3.014c0.838-0.712,1.88-1.068,3.126-1.068
		c0.859,0,1.65,0.185,2.374,0.553c0.724,0.369,1.276,0.873,1.659,1.51c0.383,0.638,0.575,1.314,0.575,2.03
		c0,0.681-0.183,1.3-0.548,1.858s-0.906,1.003-1.622,1.332c0.931,0.215,1.654,0.66,2.17,1.338c0.516,0.676,0.773,1.523,0.773,2.54
		c0,1.375-0.501,2.54-1.504,3.497c-1.003,0.955-2.271,1.434-3.803,1.434c-1.382,0-2.53-0.412-3.442-1.235
		C453.102,348.296,452.582,347.228,452.453,345.918z"/>
	<path d="M464.806,336.389v-1.858h10.194v1.504c-1.003,1.067-1.996,2.485-2.98,4.254c-0.985,1.769-1.746,3.588-2.283,5.457
		c-0.387,1.317-0.634,2.761-0.741,4.329h-1.987c0.021-1.238,0.265-2.735,0.73-4.49c0.465-1.754,1.133-3.446,2.004-5.076
		c0.869-1.629,1.795-3.002,2.776-4.119H464.806z"/>
</g>
<g>
	<path d="M452.442,373.95l2.03-0.172c0.15,0.988,0.499,1.731,1.048,2.229c0.547,0.498,1.208,0.747,1.981,0.747
		c0.931,0,1.719-0.351,2.363-1.053s0.967-1.633,0.967-2.793c0-1.103-0.31-1.973-0.929-2.61c-0.62-0.637-1.432-0.956-2.434-0.956
		c-0.623,0-1.186,0.142-1.687,0.425s-0.896,0.649-1.182,1.101l-1.815-0.236l1.525-8.089h7.831v1.848h-6.284l-0.849,4.232
		c0.945-0.658,1.937-0.988,2.976-0.988c1.375,0,2.535,0.477,3.48,1.429s1.418,2.177,1.418,3.674c0,1.425-0.416,2.657-1.246,3.695
		c-1.01,1.274-2.389,1.912-4.136,1.912c-1.433,0-2.602-0.401-3.507-1.203C453.089,376.339,452.571,375.275,452.442,373.95z"/>
	<path d="M474.711,366.183l-1.923,0.15c-0.172-0.759-0.416-1.311-0.73-1.654c-0.523-0.552-1.168-0.827-1.934-0.827
		c-0.616,0-1.156,0.172-1.622,0.516c-0.608,0.444-1.089,1.092-1.439,1.944s-0.534,2.066-0.548,3.642
		c0.465-0.709,1.035-1.235,1.708-1.579s1.378-0.516,2.116-0.516c1.289,0,2.387,0.475,3.293,1.423
		c0.905,0.949,1.358,2.176,1.358,3.68c0,0.988-0.214,1.906-0.64,2.756c-0.426,0.848-1.012,1.498-1.756,1.949
		c-0.745,0.451-1.59,0.677-2.535,0.677c-1.611,0-2.926-0.593-3.942-1.778c-1.017-1.185-1.525-3.138-1.525-5.859
		c0-3.043,0.562-5.256,1.687-6.639c0.98-1.203,2.303-1.805,3.964-1.805c1.239,0,2.254,0.348,3.046,1.042
		C474.079,363.999,474.553,364.959,474.711,366.183z M466.815,372.972c0,0.666,0.141,1.304,0.424,1.912s0.679,1.073,1.188,1.392
		c0.508,0.318,1.042,0.478,1.601,0.478c0.816,0,1.519-0.329,2.105-0.988s0.881-1.554,0.881-2.686c0-1.089-0.29-1.946-0.87-2.573
		c-0.58-0.626-1.311-0.939-2.191-0.939c-0.874,0-1.615,0.313-2.224,0.939C467.12,371.134,466.815,371.956,466.815,372.972z"/>
</g>
<g>
	<g>
		
			<line fill="none" stroke="#0066FF" stroke-width="2" stroke-miterlimit="10" x1="109.575" y1="98.272" x2="348.506" y2="311.927"/>
		<g>
			<polygon fill="#0066FF" points="359.032,321.341 338.779,314.137 347.719,311.224 349.618,302.017 			"/>
		</g>
	</g>
</g>
<g>
	<g>
		
			<line fill="none" stroke="#FF0000" stroke-width="2" stroke-miterlimit="10.433" x1="447.075" y1="178.341" x2="447.075" y2="307.219"/>
		<g>
			<polygon fill="#FF0000" points="447.075,321.341 438.944,301.442 447.075,306.164 455.204,301.442 			"/>
		</g>
	</g>
</g>
</svg>
